<?xml version="1.0" standalone="no"?>
<!DOCTYPE svg PUBLIC "-//W3C//DTD SVG 20010904//EN"
 "http://www.w3.org/TR/2001/REC-SVG-20010904/DTD/svg10.dtd">
<svg version="1.0" xmlns="http://www.w3.org/2000/svg"
 width="320.000000pt" height="320.000000pt" viewBox="0 0 320.000000 320.000000"
 preserveAspectRatio="xMidYMid meet">
<metadata>
Created by potrace 1.14, written by Peter Selinger 2001-2017
</metadata>
<g transform="translate(0.000000,320.000000) scale(0.100000,-0.100000)"
fill="#000000" stroke="none">
<path d="M1468 3095 c-2 -3 -261 -5 -574 -5 l-570 -1 -62 -212 c-34 -117 -62
-216 -62 -222 0 -10 433 -11 792 -2 149 4 168 3 172 -12 8 -29 9 -85 1 -113
l-7 -28 -132 2 -131 2 95 6 c144 9 80 12 -322 14 -327 1 -425 -4 -318 -17 29
-3 27 -4 -13 -5 l-49 -2 6 -37 c3 -21 5 -39 6 -41 0 -1 12 -8 28 -14 21 -9 23
-12 9 -15 -18 -5 -24 -23 -6 -23 5 0 7 -5 4 -11 -5 -6 -12 -4 -20 8 -7 10 -17
15 -21 11 -4 -4 -2 -14 4 -21 7 -8 9 -17 5 -20 -3 -4 -1 -7 5 -7 5 0 18 -3 28
-7 11 -4 15 -3 10 5 -3 6 -2 13 4 17 5 3 10 -1 10 -9 0 -8 -5 -18 -10 -21 -8
-5 -7 -12 2 -22 7 -9 15 -60 18 -121 l7 -107 1 101 c2 77 6 105 17 114 12 10
13 16 3 27 -9 11 -8 18 5 31 16 15 17 15 18 -3 1 -11 1 -24 0 -29 -1 -4 14 -5
34 -2 28 6 35 4 35 -9 0 -19 17 -19 37 1 9 8 19 12 22 7 3 -4 15 -9 26 -11 19
-2 19 -1 -3 17 -13 12 -18 22 -12 26 6 3 13 -1 16 -9 3 -9 12 -16 20 -16 8 0
11 6 8 15 -4 8 -2 15 4 15 16 0 22 -28 6 -34 -19 -7 -18 -19 4 -32 14 -9 22
-8 37 2 18 13 18 14 -1 36 -10 12 -13 18 -6 14 6 -4 12 -2 12 3 0 21 18 11 24
-12 6 -25 36 -33 36 -10 0 8 -5 11 -12 7 -7 -4 -8 -3 -4 4 10 17 26 15 26 -3
0 -8 5 -15 10 -15 6 0 10 -7 10 -15 0 -19 29 -20 36 0 4 10 14 13 33 9 21 -5
23 -3 11 6 -13 10 -11 11 7 7 15 -3 23 1 27 17 5 17 8 18 15 6 6 -9 6 -19 -1
-27 -13 -16 -3 -43 15 -43 8 0 20 7 28 16 10 13 10 17 0 24 -10 6 -11 12 -3
26 10 17 12 16 22 -13 14 -40 45 -35 36 6 -3 14 -3 20 0 13 5 -10 9 -10 22 0
13 11 14 10 4 -7 -8 -16 -6 -26 9 -45 14 -19 19 -21 19 -9 0 21 24 31 38 17
13 -13 42 6 42 28 0 8 4 14 8 14 17 0 21 -12 10 -30 -16 -25 7 -56 28 -39 11
9 14 7 14 -9 0 -12 -4 -23 -8 -26 -5 -3 -8 -15 -6 -28 1 -13 3 -131 3 -263 l1
-240 93 -55 c50 -30 101 -60 112 -66 40 -22 118 -66 163 -93 l47 -27 5 -410
c4 -346 6 -387 12 -264 5 80 8 261 8 404 0 218 2 257 14 253 8 -3 41 10 73 30
132 80 227 133 240 133 8 0 22 -9 32 -21 l17 -21 27 28 c15 14 27 22 27 17 0
-5 -9 -18 -20 -28 -20 -18 -27 -45 -12 -45 4 0 13 -10 21 -22 14 -22 13 -22
-5 -8 -10 8 -26 24 -35 34 -15 18 -17 18 -55 -18 -31 -29 -36 -39 -25 -46 12
-7 10 -13 -9 -33 -28 -29 -36 -85 -13 -94 12 -5 11 -8 -3 -24 -15 -17 -15 -19
0 -34 9 -9 16 -21 16 -26 0 -6 5 -7 10 -4 12 8 13 -5 1 -24 -7 -10 -1 -23 19
-43 35 -34 38 -34 73 -2 33 31 46 27 17 -4 -20 -21 -20 -23 -3 -49 16 -26 17
-27 0 -14 -9 7 -17 10 -18 5 0 -5 -4 -1 -8 9 -6 17 -9 16 -33 -6 -15 -14 -24
-28 -21 -31 4 -3 -1 -6 -9 -6 -9 0 -21 7 -28 15 -19 23 -30 18 -30 -15 0 -27
3 -30 24 -24 19 4 32 -1 51 -20 30 -30 38 -32 60 -10 9 9 18 14 21 11 3 -3 -5
-14 -17 -26 -18 -16 -20 -24 -11 -33 7 -7 12 -16 12 -22 0 -5 -8 1 -19 12 -10
12 -23 22 -28 22 -18 0 -66 -59 -60 -74 4 -9 -3 -25 -16 -38 -25 -27 -33 -68
-15 -79 11 -7 10 -12 0 -30 -12 -18 -10 -23 12 -44 18 -16 21 -26 13 -34 -8
-8 -3 -19 19 -41 16 -16 32 -30 36 -30 3 0 20 12 37 26 l31 26 -17 -31 c-17
-29 -17 -31 5 -51 12 -11 22 -26 22 -33 0 -7 -12 1 -26 17 l-26 29 -34 -18
c-19 -10 -34 -23 -34 -28 0 -6 -9 0 -19 12 -24 27 -38 21 -38 -15 0 -22 3 -25
24 -19 19 4 31 0 48 -20 30 -32 48 -32 74 2 12 14 23 24 26 21 3 -3 -6 -18
-20 -34 -31 -36 -31 -38 2 -63 14 -12 24 -23 22 -26 -3 -2 -20 11 -39 29 l-35
32 -40 -27 c-41 -28 -75 -25 -75 7 0 8 -11 26 -24 39 -19 19 -31 23 -55 19
-21 -5 -40 0 -66 16 -27 17 -44 21 -71 15 -19 -3 -38 -13 -41 -21 -3 -9 -19
-14 -44 -14 -35 0 -39 3 -39 24 0 29 -17 43 -33 27 -8 -8 -8 -11 1 -11 7 0 12
-8 12 -17 -1 -17 -1 -17 -11 0 -5 9 -14 17 -19 17 -6 0 -10 -8 -11 -17 0 -12
-2 -13 -6 -5 -3 7 0 19 6 26 8 10 6 17 -7 29 -15 13 -20 14 -36 2 -10 -8 -16
-20 -13 -28 3 -8 1 -20 -4 -28 -6 -10 -9 -7 -9 14 0 20 -5 27 -20 27 -11 0
-20 -4 -20 -9 0 -5 -9 -7 -19 -4 -12 3 -17 11 -14 19 6 17 -23 19 -33 3 -3 -6
-14 -9 -23 -6 -20 5 -44 -10 -54 -33 -4 -8 -4 -1 -1 16 7 41 -16 62 -40 38
-14 -13 -14 -19 -4 -32 8 -10 9 -13 1 -9 -6 4 -13 2 -16 -5 -2 -7 -3 -5 -2 4
3 15 -14 28 -36 28 -5 0 -10 -10 -10 -22 -1 -17 -2 -19 -6 -5 -2 9 -11 17 -19
17 -8 0 -14 7 -14 15 0 8 -7 15 -15 15 -8 0 -15 -5 -15 -10 0 -6 -11 -8 -24
-6 -31 6 -39 -3 -24 -23 10 -13 10 -14 -2 -3 -8 6 -17 12 -21 12 -4 0 -9 -6
-12 -12 -2 -7 -2 -1 0 14 5 30 -9 42 -37 33 -20 -6 -27 -31 -11 -37 5 -1 2 -9
-6 -17 -14 -12 -15 -12 -11 0 7 20 -19 41 -41 34 -11 -3 -25 1 -34 10 -17 17
-37 20 -37 6 0 -5 -16 -11 -35 -13 -24 -3 -39 1 -49 14 -19 22 -30 23 -46 3
-10 -12 -10 -18 1 -32 12 -16 12 -17 -2 -6 -9 7 -20 9 -24 5 -5 -4 -6 0 -3 8
4 11 -1 16 -13 17 -11 1 -19 -5 -19 -13 0 -8 -5 -14 -11 -14 -5 0 -8 4 -5 8 6
9 -29 42 -44 42 -6 0 -10 -6 -10 -13 0 -20 -63 -16 -78 5 -24 34 -59 12 -53
-34 1 -10 -3 -18 -9 -18 -7 0 -9 7 -6 15 6 18 -21 33 -34 19 -5 -5 -12 -27
-16 -49 -6 -36 -6 -39 9 -26 11 8 17 9 17 3 0 -6 6 -10 13 -8 6 1 9 1 4 -1 -4
-3 -4 -10 -1 -15 4 -7 2 -8 -5 -4 -26 16 -39 -14 -37 -84 2 -77 8 -89 33 -69
15 12 16 12 8 -1 -4 -8 -13 -22 -20 -30 -6 -8 -12 -24 -12 -35 -1 -11 -2 -25
-3 -30 -8 -36 1 -55 25 -55 14 0 25 -4 25 -10 0 -5 7 -10 16 -10 8 0 12 5 9
10 -3 6 0 10 8 10 8 0 17 -13 20 -29 7 -34 22 -39 97 -30 30 4 140 8 244 8
104 1 187 3 184 6 -3 3 -118 5 -257 5 -138 0 -251 4 -251 9 0 23 34 30 155 29
72 0 258 0 415 1 234 0 381 -2 466 -8 6 -1 16 -12 22 -26 10 -21 19 -25 59
-26 43 -1 45 -2 18 -9 -39 -10 164 -12 219 -2 31 6 42 14 57 42 23 44 37 60
52 60 7 0 4 -5 -6 -11 -17 -10 -16 -12 10 -35 15 -13 38 -24 50 -24 12 0 25
-5 29 -11 3 -6 17 -8 30 -5 16 4 22 3 19 -6 -4 -9 7 -13 37 -14 105 -2 524 -4
533 -3 6 1 21 2 35 3 14 1 24 6 23 11 -1 6 18 9 45 8 35 -2 42 -1 27 6 -27 13
-18 14 116 12 l117 -1 6 26 c4 15 2 32 -3 37 -7 7 -12 62 -12 131 -1 67 -4
135 -8 151 -3 17 -7 -33 -7 -110 -1 -221 3 -202 -43 -210 -21 -3 -56 -3 -77 1
-22 5 -44 7 -49 6 -21 -4 -10 48 13 64 l23 16 -22 19 c-20 17 -16 25 13 20 4
0 5 6 2 14 -5 11 -2 14 12 9 14 -5 11 1 -10 24 -16 18 -38 34 -48 38 -19 6
-19 6 -1 19 17 13 16 15 -16 44 -39 35 -44 37 -61 16 -7 -8 -16 -13 -20 -10
-5 3 -10 -1 -13 -7 -2 -7 -8 -9 -13 -5 -5 5 -1 15 10 23 19 14 19 15 -9 44
-16 16 -26 33 -22 36 4 4 9 -1 13 -10 3 -9 10 -13 15 -10 5 3 9 0 9 -6 0 -6 4
-9 9 -6 5 4 12 0 14 -6 4 -9 8 -9 14 -3 4 6 23 18 41 29 25 13 37 15 45 7 18
-18 26 -13 25 19 -1 32 -19 39 -40 16 -11 -11 -17 -11 -38 3 -14 8 -28 20 -32
26 -4 6 -19 1 -38 -14 -17 -12 -35 -20 -38 -16 -7 6 20 31 41 38 7 2 4 13 -6
27 -9 14 -17 20 -17 15 0 -6 -5 -2 -11 8 -18 32 -2 30 33 -2 38 -35 49 -37 83
-15 27 18 32 43 13 63 -11 11 -10 13 2 9 8 -3 20 6 27 20 15 28 17 56 4 48
-20 -13 -21 28 -1 49 l20 22 -29 26 c-20 17 -28 32 -24 45 3 13 -5 29 -24 46
-34 31 -38 32 -66 5 -12 -11 -31 -25 -42 -31 -11 -6 -6 3 12 20 31 29 32 30
12 47 -10 10 -19 23 -19 29 0 8 2 8 8 0 13 -21 51 -26 67 -10 8 8 15 19 15 24
0 6 7 12 15 16 8 3 15 2 15 -3 0 -5 10 -7 23 -6 31 3 31 3 18 19 -8 9 -8 15
-2 18 7 2 7 9 1 18 -8 12 -11 12 -28 -3 -18 -17 -52 -14 -52 4 0 4 -9 13 -20
19 -17 9 -24 6 -45 -16 -14 -15 -25 -22 -25 -17 0 5 9 18 20 28 14 13 18 25
14 39 -7 21 -6 21 14 3 18 -17 23 -17 41 -5 12 8 18 18 14 21 -6 6 11 11 30 8
4 0 7 8 7 19 0 11 -4 20 -10 20 -19 0 -10 17 15 28 30 14 34 55 8 72 -17 11
-17 11 -1 6 14 -4 17 1 16 32 -1 20 -9 47 -19 60 -9 12 -15 31 -12 42 3 12 -4
28 -22 45 -29 26 -72 36 -59 13 4 -7 -9 4 -30 26 -20 21 -35 43 -32 50 3 7 5
7 5 -1 1 -7 8 -13 18 -13 9 0 13 -3 10 -7 -4 -3 2 -12 13 -20 17 -12 23 -12
40 0 11 8 17 17 13 20 -3 4 1 7 11 7 9 0 15 4 12 9 -3 5 9 8 27 7 28 -1 32 2
35 27 2 19 -1 27 -12 27 -9 0 -16 -4 -16 -8 0 -16 -39 -10 -56 9 -21 24 -50
25 -63 2 -5 -10 -13 -14 -18 -10 -4 5 3 16 15 26 17 12 21 22 16 36 -7 20 -7
20 15 1 22 -20 22 -20 46 6 13 14 30 28 37 31 10 3 10 9 2 23 -9 16 -6 24 17
48 27 29 27 29 8 49 -23 26 -24 38 -2 30 13 -5 15 -2 9 12 -3 10 -2 21 3 25 6
3 -4 20 -21 39 -23 25 -28 35 -18 41 10 6 6 16 -18 39 -17 17 -34 31 -39 31
-4 0 -27 -18 -50 -40 -49 -45 -59 -35 -12 12 l30 31 -32 33 c-35 36 -27 48 9
14 12 -12 22 -17 22 -13 0 4 4 2 9 -5 6 -10 16 -6 42 17 35 32 53 38 64 21 4
-6 11 -8 16 -4 6 4 6 11 -2 20 -8 10 -8 14 0 14 6 0 11 5 11 10 0 15 -21 12
-42 -6 -17 -16 -19 -15 -44 10 -15 14 -30 26 -34 26 -4 0 -23 -13 -41 -30 -20
-17 -36 -25 -38 -18 -2 6 8 22 23 34 33 29 33 47 -1 73 -14 12 -24 24 -21 27
3 3 13 -2 22 -11 9 -9 16 -14 16 -10 0 3 10 -3 22 -15 29 -27 39 -25 73 10
l28 30 -21 19 c-23 20 -31 41 -9 22 10 -8 19 -6 35 10 24 22 27 34 12 44 -5 3
-15 16 -22 28 -10 19 -9 20 3 10 20 -16 45 12 41 45 -3 19 1 22 35 22 21 0 48
3 61 6 23 7 23 6 18 -72 -4 -77 -3 -74 13 34 l8 53 -108 -3 c-60 -2 -109 0
-109 4 0 5 3 8 8 8 4 0 16 7 27 16 20 15 19 15 -13 43 -21 19 -30 34 -26 45 6
16 24 22 24 8 0 -4 21 -5 46 -3 32 2 42 6 33 12 -11 7 -11 9 -1 9 7 0 10 5 7
10 -4 6 -14 10 -23 9 -10 -1 -48 0 -87 1 l-70 3 70 8 c39 5 117 10 175 12 66
3 105 8 108 16 2 6 -5 11 -15 11 -17 1 -17 1 1 15 19 14 19 20 7 127 -7 62
-15 130 -18 150 l-5 36 -733 1 c-403 0 -734 -2 -737 -4z m1043 -411 c2 2 20 6
39 10 25 4 31 3 20 -4 -11 -7 -5 -10 25 -10 62 0 71 -12 34 -41 -18 -13 -38
-30 -45 -36 -16 -17 -24 -16 -24 1 0 7 9 16 20 19 11 3 20 12 20 21 0 12 -13
15 -71 13 -39 0 -73 -5 -76 -10 -3 -5 -9 -3 -13 4 -7 10 -12 10 -23 0 -12 -9
-16 -9 -20 1 -3 10 -9 9 -24 -5 -11 -9 -23 -14 -27 -10 -4 4 -4 0 0 -10 3 -9
12 -17 20 -17 17 0 18 -12 2 -28 -18 -18 -42 -15 -69 9 l-23 20 -46 -49 c-25
-27 -55 -55 -67 -61 -28 -14 -29 -32 -4 -55 19 -17 39 -7 26 14 -3 5 -2 17 3
26 6 11 11 13 16 5 4 -6 4 -11 -1 -11 -10 0 -10 -51 0 -68 5 -8 2 -15 -10 -19
-10 -4 -26 -17 -36 -30 -10 -13 -22 -23 -26 -23 -8 0 -26 258 -19 266 2 2 21
-10 42 -27 47 -40 60 -29 18 14 -18 18 -32 37 -32 42 0 6 4 5 8 -1 19 -29 44
-31 68 -7 29 29 29 28 4 30 -11 1 -20 -4 -20 -13 0 -16 -16 -19 -25 -3 -12 19
4 23 108 30 107 8 167 15 174 23 3 3 15 1 28 -4 13 -5 25 -7 26 -6z m159 6 c0
-12 -17 -12 -45 0 -17 7 -15 9 13 9 17 1 32 -3 32 -9z m77 4 c-3 -3 -12 -4
-19 -1 -8 3 -5 6 6 6 11 1 17 -2 13 -5z m-637 -34 c13 -8 12 -10 -2 -10 -15 0
-18 -10 -19 -52 -1 -49 -2 -51 -9 -19 -5 19 -6 40 -3 47 2 6 0 15 -6 19 -6 3
-11 10 -11 16 0 12 31 11 50 -1z m294 -45 c-4 -8 -8 -15 -10 -15 -2 0 -4 7 -4
15 0 8 4 15 10 15 5 0 7 -7 4 -15z m54 -253 l-3 -34 -44 40 -44 39 32 28 c17
16 31 33 31 39 0 6 -14 26 -30 44 l-29 34 37 34 37 34 8 -113 c4 -61 6 -127 5
-145z m-171 183 c-15 -16 -19 -13 -11 9 3 9 10 13 15 10 5 -3 3 -11 -4 -19z
m-17 -32 c0 -2 -6 -11 -14 -18 -12 -12 -14 -11 -12 9 0 14 6 22 14 19 6 -3 12
-7 12 -10z m383 2 c-3 -9 -8 -14 -10 -11 -3 3 -2 9 2 15 9 16 15 13 8 -4z
m-563 -20 c0 -8 -2 -15 -4 -15 -2 0 -6 7 -10 15 -3 8 -1 15 4 15 6 0 10 -7 10
-15z m-3 -57 c-3 -7 -5 -2 -5 12 0 14 2 19 5 13 2 -7 2 -19 0 -25z m-1532 -9
c-3 -4 4 -13 15 -19 11 -6 20 -8 20 -4 0 3 7 0 16 -7 14 -12 13 -14 -12 -21
-18 -5 -34 -3 -44 5 -27 23 -65 20 -92 -8 -16 -16 -29 -22 -33 -15 -3 5 -1 10
4 10 6 0 11 5 11 10 0 6 -3 9 -7 8 -5 -2 -9 2 -11 7 -2 6 5 12 15 13 10 2 24
11 31 20 11 14 14 15 21 3 6 -9 18 -11 36 -7 24 6 25 9 13 24 -12 15 -11 16 4
3 10 -7 15 -17 13 -22z m261 3 c0 -10 12 -23 32 -31 35 -16 44 -37 12 -28 -11
3 -20 1 -20 -4 0 -5 5 -9 11 -9 5 0 7 -4 4 -10 -9 -14 -26 -12 -22 2 1 7 -13
20 -32 29 -38 20 -70 13 -87 -19 -7 -15 -14 -18 -25 -11 -10 6 -10 9 -1 9 6 0
12 4 12 10 0 5 -7 7 -15 4 -27 -11 -16 14 13 28 15 8 26 21 26 31 -2 23 4 21
26 -5 15 -19 20 -21 34 -9 9 8 15 20 12 27 -3 8 0 11 8 8 8 -3 13 -13 12 -22z
m1430 9 c0 -11 -4 -17 -8 -15 -13 8 -2 -54 13 -73 25 -32 34 -33 65 -2 28 27
34 29 53 17 23 -14 28 -28 9 -28 -20 0 -58 -42 -58 -65 0 -34 36 -65 75 -65
19 0 37 5 40 10 13 21 25 9 25 -25 0 -34 -12 -46 -26 -24 -9 15 -72 4 -95 -17
-11 -9 -19 -28 -19 -41 0 -27 39 -72 58 -65 16 5 15 -6 -1 -21 -20 -19 -33
-18 -57 8 -29 31 -38 31 -75 -1 -28 -24 -30 -24 -43 -7 -10 14 -10 19 0 22 26
8 48 41 48 73 1 27 2 30 11 16 5 -10 16 -18 23 -18 14 0 66 51 66 66 0 12 -52
64 -64 64 -12 0 -66 -57 -66 -69 0 -6 5 -11 10 -11 6 0 10 -5 10 -11 0 -8 -4
-8 -13 -1 -20 17 -73 18 -91 3 -14 -12 -16 -9 -16 22 l0 35 44 -5 c35 -4 48
-1 65 16 11 11 21 31 21 44 0 23 -40 67 -61 67 -8 0 -8 5 1 15 7 8 9 15 6 15
-4 0 -1 7 8 15 8 9 13 22 10 29 -3 7 2 21 11 30 21 20 21 20 21 -3z m-1264
-69 c-18 -19 -36 -31 -40 -27 -3 3 0 10 8 15 12 8 10 10 -8 10 -13 0 -29 6
-36 13 -11 11 -7 13 21 14 38 1 63 18 63 42 0 10 5 7 13 -9 12 -23 10 -28 -21
-58z m118 34 c0 4 9 -1 19 -10 15 -13 20 -14 24 -4 2 7 8 9 13 5 12 -12 -17
-28 -43 -24 -24 4 -32 -8 -10 -16 6 -2 9 -8 5 -12 -4 -5 -17 4 -29 18 -11 15
-27 27 -35 27 -17 0 -18 12 -2 28 9 9 17 8 35 -3 13 -9 23 -12 23 -9z m-445
-16 c3 -6 -1 -7 -9 -4 -18 7 -21 14 -7 14 6 0 13 -4 16 -10z m1432 -72 c-2
-18 -4 -6 -4 27 0 33 2 48 4 33 2 -15 2 -42 0 -60z m-1490 36 c-3 -3 -12 -4
-19 -1 -8 3 -5 6 6 6 11 1 17 -2 13 -5z m-127 -24 c0 -5 -2 -10 -4 -10 -3 0
-8 5 -11 10 -3 6 -1 10 4 10 6 0 11 -4 11 -10z m620 -25 c0 -5 -5 -3 -10 5 -5
8 -10 20 -10 25 0 6 5 3 10 -5 5 -8 10 -19 10 -25z m1109 -16 c-16 -10 -23 -4
-14 10 3 6 11 8 17 5 6 -4 5 -9 -3 -15z m191 8 c0 -7 -9 -13 -19 -13 -15 0
-17 3 -9 13 6 7 14 13 19 13 5 0 9 -6 9 -13z m-3 -214 c-3 -2 -14 0 -24 7 -16
10 -16 11 0 6 9 -3 17 0 18 7 0 8 2 8 6 -1 3 -7 3 -16 0 -19z m-1007 -9 c0
-12 -6 -15 -24 -10 -33 8 -53 -16 -31 -38 9 -9 21 -16 27 -16 20 0 48 -33 48
-55 0 -37 -25 -49 -92 -46 -20 1 -26 5 -22 16 4 9 15 12 33 9 18 -4 32 0 40
10 11 13 6 19 -33 43 -35 21 -46 34 -46 53 0 36 18 50 62 50 28 0 38 -4 38
-16z m410 -5 c0 -5 -7 -9 -15 -9 -15 0 -20 12 -9 23 8 8 24 -1 24 -14z m-70
-13 c0 -13 6 -27 13 -30 10 -5 10 -7 0 -12 -15 -7 -18 -84 -3 -84 6 0 10 -5
10 -11 0 -6 -10 -9 -22 -7 -19 2 -24 10 -26 48 -2 24 -9 48 -15 53 -9 7 -9 10
1 14 6 2 12 13 12 22 0 10 3 21 7 24 13 14 23 6 23 -17z m736 -126 c0 -72 -4
-131 -8 -133 -11 -4 -68 43 -68 56 0 7 16 23 34 37 l34 25 -34 30 c-19 17 -34
34 -34 39 0 6 69 74 76 76 1 0 1 -59 0 -130z m-666 113 c1 -5 3 -32 6 -62 4
-39 2 -56 -8 -62 -22 -14 -23 -11 -22 54 1 76 2 77 14 77 6 0 10 -3 10 -7z
m123 -15 c8 -12 7 -24 -2 -44 -9 -21 -14 -25 -21 -15 -10 17 -40 7 -40 -13 0
-7 9 -16 20 -19 11 -3 20 -1 20 4 0 5 8 9 17 9 14 0 13 -3 -5 -16 -12 -8 -35
-14 -50 -12 -23 3 -27 8 -27 33 0 25 5 32 33 40 17 5 32 15 32 22 0 15 -36 18
-45 3 -7 -11 -25 -4 -25 10 0 23 79 22 93 -2z m269 -33 c12 -16 9 -25 -17 -49
-14 -13 -25 -28 -25 -33 0 -5 11 -20 25 -33 14 -13 25 -28 25 -34 0 -14 -49
-60 -56 -54 -3 3 -7 63 -11 134 l-5 129 28 -25 c16 -14 32 -29 36 -35z m-677
32 c7 -7 14 -37 16 -65 4 -50 3 -52 -21 -50 -14 1 -31 -2 -38 -6 -8 -5 -21 -1
-33 10 -36 32 -18 74 33 74 15 0 28 5 28 10 0 17 -31 24 -50 12 -14 -9 -19 -8
-24 3 -9 24 67 34 89 12z m147 0 c4 -7 8 -36 8 -64 0 -41 -4 -53 -15 -53 -11
0 -15 12 -15 50 0 37 -4 52 -16 57 -25 9 -39 -15 -37 -62 1 -33 -2 -45 -13
-45 -10 0 -14 12 -14 43 0 23 -3 52 -6 64 -5 20 -2 21 47 21 31 1 57 -4 61
-11z m1042 -31 c-3 -9 -10 -16 -15 -16 -5 0 -4 9 3 20 14 22 21 20 12 -4z
m-1124 -127 c3 -4 18 -10 34 -13 48 -9 44 -19 -4 -11 -39 5 -110 31 -110 38 0
7 76 -7 80 -14z m150 -9 c-12 -8 -12 -10 -1 -10 8 0 12 -2 9 -5 -3 -3 -13 -2
-22 1 -14 5 -15 9 -4 15 7 5 18 9 23 9 6 0 3 -5 -5 -10z m-126 -36 c14 -2 44
0 67 5 49 11 40 -3 -11 -16 -43 -12 -91 0 -116 28 l-19 22 26 -17 c15 -9 38
-19 53 -22z m661 -30 l25 -27 34 27 c40 30 43 31 62 11 11 -11 12 -15 3 -15
-22 0 -59 -42 -59 -67 0 -13 8 -32 18 -42 22 -23 89 -33 97 -13 9 24 22 4 17
-28 -3 -23 -8 -28 -15 -21 -14 14 -70 14 -84 0 -9 -9 -11 -7 -7 8 4 15 -4 27
-27 46 -37 29 -55 23 -84 -25 -14 -24 -21 -28 -45 -23 -19 4 -33 1 -44 -10
-15 -15 -16 -14 -16 17 l0 33 47 -4 c52 -4 73 13 73 56 0 30 -39 84 -54 76 -6
-4 -5 1 3 10 18 23 28 21 56 -9z m355 -35 c0 -6 -7 -6 -20 1 -11 6 -20 15 -20
21 0 6 7 6 20 -1 11 -6 20 -15 20 -21z m-222 -24 c-3 -3 -9 2 -12 12 -6 14 -5
15 5 6 7 -7 10 -15 7 -18z m-343 -95 c3 -6 -1 -7 -9 -4 -18 7 -21 14 -7 14 6
0 13 -4 16 -10z m247 -72 c17 17 28 15 28 -5 1 -23 32 -60 54 -64 17 -4 17 -5
-2 -22 -19 -17 -21 -17 -51 8 -20 18 -37 24 -50 20 -11 -3 -23 0 -27 7 -4 6
-2 14 4 16 7 2 12 16 12 30 0 21 2 24 10 12 7 -12 12 -12 22 -2z m95 -35 c-3
-2 -14 0 -24 7 -16 10 -16 11 0 6 9 -3 17 0 18 7 0 8 2 8 6 -1 3 -7 3 -16 0
-19z m208 -22 c-3 -6 -11 -11 -16 -11 -5 0 -4 6 3 14 14 16 24 13 13 -3z
m-345 -26 c0 -15 -19 -24 -37 -18 -19 7 -16 31 5 36 22 5 32 -1 32 -18z m205
-30 c-2 -19 -6 -44 -10 -55 -7 -21 -7 -21 -32 4 -14 15 -31 26 -37 26 -6 0 7
16 28 35 21 19 42 32 46 30 5 -3 7 -21 5 -40z m-282 5 c28 -27 30 -32 17 -43
-8 -7 -23 -22 -33 -34 -19 -21 -18 -22 14 -51 l33 -29 -33 -32 c-17 -17 -34
-31 -37 -31 -3 0 -4 56 -3 125 0 69 3 125 6 125 2 0 18 -14 36 -30z m276 -155
c-2 -64 -2 -65 -20 -46 -10 11 -26 24 -36 29 -15 9 -14 13 13 45 16 20 33 36
37 36 4 1 7 -28 6 -64z m-196 -51 l24 -26 41 27 c38 25 43 26 57 11 9 -9 11
-16 5 -16 -19 0 -60 -48 -60 -70 0 -11 9 -30 20 -42 15 -17 27 -20 62 -16 40
5 44 3 43 -18 0 -12 -4 -26 -9 -31 -5 -5 -7 -1 -3 10 4 11 3 16 -3 12 -6 -4
-23 -9 -38 -11 -34 -6 -72 -41 -72 -66 0 -31 35 -61 65 -56 l26 5 -27 -28 -28
-29 -32 31 c-31 30 -32 30 -58 14 -14 -10 -26 -21 -26 -26 0 -14 -14 -11 -36
7 -10 8 -13 13 -7 9 16 -8 63 42 63 66 0 12 5 16 14 13 18 -7 79 53 72 71 -2
7 -18 22 -34 33 l-29 21 -36 -34 c-27 -26 -46 -35 -71 -35 -24 0 -36 -5 -39
-17 -3 -10 -5 -2 -6 17 l-1 35 47 -4 c36 -2 50 1 60 15 28 39 5 114 -35 114
-12 0 -12 4 3 20 22 25 19 25 48 -6z m332 -24 c3 -5 1 -10 -4 -10 -6 0 -11 5
-11 10 0 6 2 10 4 10 3 0 8 -4 11 -10z m-195 -31 c0 -5 -4 -9 -10 -9 -5 0 -10
7 -10 16 0 8 5 12 10 9 6 -3 10 -10 10 -16z m-20 -159 c0 -5 -5 -10 -11 -10
-5 0 -7 5 -4 10 3 6 8 10 11 10 2 0 4 -4 4 -10z m20 -35 c0 -18 -26 -20 -36
-3 -5 8 -2 9 9 5 10 -3 17 -2 17 3 0 6 2 10 5 10 3 0 5 -7 5 -15z m-170 -9 c0
-3 -4 -8 -10 -11 -5 -3 -10 -1 -10 4 0 6 5 11 10 11 6 0 10 -2 10 -4z m233
-58 c9 -39 8 -238 -1 -238 -4 0 -23 16 -42 35 l-33 35 30 29 31 29 -29 28
c-16 15 -29 32 -29 36 0 10 51 65 61 67 4 1 9 -9 12 -21z m-261 -51 c-2 -9
-15 -27 -28 -40 l-23 -22 31 -32 c31 -32 31 -33 12 -48 -53 -42 -54 -41 -54
35 0 49 4 70 13 71 10 0 10 2 0 6 -8 3 -13 23 -13 48 l0 44 33 -22 c23 -15 32
-28 29 -40z m178 -162 c8 -11 11 -17 7 -14 -13 11 -52 -35 -54 -61 -2 -28 29
-54 71 -58 16 -1 32 -4 34 -7 3 -3 11 3 17 12 11 15 13 14 13 -9 0 -24 -3 -25
-29 -18 -36 10 -40 10 -60 -1 -13 -7 -18 -3 -23 17 -4 15 -10 24 -13 20 -4 -3
-15 1 -25 11 -17 15 -20 15 -41 -5 -13 -12 -26 -20 -29 -16 -3 3 -5 -8 -4 -25
1 -21 -1 -28 -8 -21 -14 14 -83 12 -89 -2 -2 -7 -5 4 -5 24 l0 37 34 -20 c23
-13 34 -15 34 -6 0 8 4 7 10 -3 8 -12 10 -11 10 8 0 13 6 22 15 22 8 0 17 11
21 25 7 28 -15 60 -47 70 -15 5 -16 9 -6 20 16 17 26 15 57 -12 31 -29 31 -29
66 5 16 16 29 28 29 28 1 -1 7 -10 15 -21z m180 -35 c0 -11 -4 -20 -9 -20 -5
0 -7 9 -4 20 3 11 7 20 9 20 2 0 4 -9 4 -20z m-53 -12 c-3 -8 -6 -5 -6 6 -1
11 2 17 5 13 3 -3 4 -12 1 -19z m-278 -12 c10 -12 8 -13 -8 -9 -12 3 -18 9
-15 14 7 12 10 11 23 -5z m171 4 c0 -5 -2 -10 -4 -10 -3 0 -8 5 -11 10 -3 6
-1 10 4 10 6 0 11 -4 11 -10z m157 -32 c-3 -8 -6 -5 -6 6 -1 11 2 17 5 13 3
-3 4 -12 1 -19z m0 -105 c-3 -10 -5 -4 -5 12 0 17 2 24 5 18 2 -7 2 -21 0 -30z
m-2217 17 c0 -5 -2 -10 -4 -10 -3 0 -8 5 -11 10 -3 6 -1 10 4 10 6 0 11 -4 11
-10z m110 -30 c-8 -5 -19 -10 -25 -10 -5 0 -3 5 5 10 8 5 20 10 25 10 6 0 3
-5 -5 -10z m141 0 c6 0 7 -5 4 -10 -4 -6 -10 -8 -15 -5 -5 3 -18 -3 -29 -14
-13 -13 -23 -16 -27 -10 -8 14 27 49 44 43 8 -2 18 -4 23 -4z m1737 3 c-4 -16
14 -53 23 -48 5 4 12 -1 15 -10 4 -9 13 -14 20 -11 22 8 16 -12 -6 -24 -23
-12 -44 -4 -34 12 4 7 2 8 -4 4 -6 -3 -17 0 -24 7 -10 11 -18 12 -35 4 -13 -6
-23 -14 -23 -20 0 -5 -7 -7 -14 -4 -11 4 -13 1 -9 -10 5 -12 -2 -10 -25 7 -18
13 -32 25 -32 25 0 1 11 0 24 -2 18 -4 30 4 54 33 27 33 32 35 38 19 7 -17 8
-17 15 3 8 20 22 32 17 15z m-1605 -15 c31 -15 35 -33 10 -42 -10 -4 -14 -4
-11 0 7 7 -20 39 -33 39 -4 0 -11 3 -15 8 -12 11 19 8 49 -5z m135 -6 c-8 -9
-13 -10 -18 -1 -5 7 -13 3 -24 -12 -14 -20 -18 -21 -26 -10 -10 18 23 39 57
38 17 -1 19 -4 11 -15z m122 3 c7 -9 19 -14 26 -11 7 3 16 0 20 -6 4 -6 3 -8
-4 -4 -6 3 -13 -3 -17 -14 -6 -20 -7 -20 -26 4 -11 14 -23 25 -27 25 -19 -3
-25 2 -12 11 20 13 25 12 40 -5z m144 -7 c-3 -5 -12 -7 -19 -4 -7 2 -21 -4
-31 -15 -11 -12 -21 -16 -27 -10 -12 12 0 31 19 31 8 0 14 4 14 9 0 4 11 6 25
3 14 -2 22 -9 19 -14z m986 -5 c0 -21 -3 -24 -9 -14 -5 8 -7 20 -4 28 8 21 13
15 13 -14z m-1646 5 c-5 -9 -2 -8 9 1 20 16 37 7 20 -10 -7 -7 -19 -9 -27 -6
-18 7 -22 27 -5 27 5 0 7 -6 3 -12z m782 -5 c12 -7 23 -11 25 -10 3 1 0 -4 -6
-11 -9 -10 -16 -10 -38 0 -15 7 -29 18 -31 24 -5 14 23 12 50 -3z m122 -8 c-1
-2 -12 -5 -23 -7 -11 -1 -23 -7 -27 -13 -5 -6 -12 -5 -20 4 -9 9 -9 12 -1 7 7
-4 17 2 23 14 9 17 14 18 31 9 12 -6 19 -12 17 -14z m95 0 c-3 -9 -8 -14 -10
-11 -3 3 -2 9 2 15 9 16 15 13 8 -4z m937 5 c0 -5 -5 -10 -11 -10 -5 0 -7 5
-4 10 3 6 8 10 11 10 2 0 4 -4 4 -10z m-647 -30 c26 -16 51 -38 54 -47 4 -10
11 -21 17 -25 6 -4 11 -29 11 -56 -1 -113 -115 -184 -237 -148 -88 25 -128 71
-124 141 5 73 6 76 18 69 7 -5 9 -2 5 8 -13 36 78 87 159 88 39 0 61 -7 97
-30z m712 -209 l-6 -24 -20 22 c-11 11 -26 21 -33 21 -11 0 -12 5 -3 25 7 14
17 25 23 25 5 0 15 5 22 12 9 9 5 18 -20 38 -26 22 -29 29 -20 46 6 10 12 15
12 11 0 -4 10 2 23 13 l22 21 3 -93 c2 -51 0 -104 -3 -117z m-286 170 c17 -13
22 -23 16 -39 -3 -12 -11 -22 -16 -22 -6 0 -17 -6 -24 -14 -12 -11 -9 -17 16
-35 29 -21 35 -42 14 -43 -6 0 -16 -9 -23 -20 -24 -33 -32 -9 -32 93 0 107 5
114 49 80z m-1662 -78 c-3 -10 -5 -4 -5 12 0 17 2 24 5 18 2 -7 2 -21 0 -30z
m581 -7 c15 9 17 7 18 -18 1 -16 -2 -25 -5 -20 -3 5 -23 17 -43 27 -21 9 -38
24 -38 33 0 12 6 10 25 -8 20 -19 30 -22 43 -14z m-278 -3 c11 3 20 1 20 -3 0
-5 7 -16 16 -24 8 -9 11 -16 6 -16 -5 0 -15 7 -22 15 -7 8 -16 13 -20 10 -10
-6 -50 24 -50 38 0 7 7 4 15 -7 9 -12 22 -17 35 -13z m167 -24 c-6 -10 -16
-19 -21 -19 -5 0 -1 9 9 20 16 18 16 20 1 26 -9 3 -16 11 -16 17 0 5 9 2 19
-7 16 -15 18 -21 8 -37z m329 4 c-3 -4 -6 -1 -6 5 0 7 -7 12 -15 12 -9 0 -12
6 -8 15 5 13 8 12 20 -5 8 -12 12 -24 9 -27z m-730 21 c-4 -9 -1 -23 5 -30 15
-19 1 -18 -18 1 -8 8 -18 13 -23 10 -4 -3 -10 1 -13 8 -4 10 2 13 19 9 14 -2
24 0 24 7 0 6 3 11 6 11 3 0 3 -7 0 -16z m148 -15 c-3 -6 -7 -9 -8 -7 -1 2 -8
12 -16 22 -14 18 -14 19 8 7 12 -7 20 -17 16 -22z m513 13 c9 -15 7 -21 -11
-32 -19 -12 -20 -12 -7 3 11 14 11 20 1 32 -7 8 -8 15 -4 15 5 0 14 -8 21 -18z
m115 -4 c-9 -9 -9 -15 1 -26 10 -13 9 -14 -10 -1 -21 12 -21 14 -5 30 9 9 19
15 21 13 3 -3 -1 -10 -7 -16z m-882 -1 c0 -2 -10 -12 -21 -23 -22 -19 -22 -19
-8 4 12 19 29 30 29 19z m-140 -28 c0 -6 -4 -7 -10 -4 -5 3 -10 11 -10 16 0 6
5 7 10 4 6 -3 10 -11 10 -16z m566 -46 c-5 -5 -11 -2 -14 6 -4 11 -6 11 -13 0
-4 -7 -11 -10 -15 -6 -4 3 -1 14 6 22 12 14 15 14 29 1 8 -9 11 -19 7 -23z
m154 4 c0 -5 -4 -5 -10 -2 -5 3 -10 14 -10 23 0 15 2 15 10 2 5 -8 10 -19 10
-23z m-620 2 c0 -5 -4 -9 -10 -9 -5 0 -10 7 -10 16 0 8 5 12 10 9 6 -3 10 -10
10 -16z m268 -5 c1 0 -26 -2 -60 -3 -43 -1 -58 2 -48 8 8 5 27 7 42 4 19 -4
28 -1 28 7 0 10 4 9 18 -1 9 -7 18 -14 20 -15z m253 11 c-1 -5 -10 -11 -21
-11 -20 -1 -26 7 -13 20 10 9 34 3 34 -9z m199 4 c0 -7 11 -8 30 -4 19 4 30 3
30 -4 0 -7 -21 -11 -51 -11 -45 0 -50 2 -39 15 15 18 30 20 30 4z m-785 -9 c3
-6 -1 -7 -9 -4 -18 7 -21 14 -7 14 6 0 13 -4 16 -10z m1015 0 c0 -5 -5 -10
-11 -10 -5 0 -7 5 -4 10 3 6 8 10 11 10 2 0 4 -4 4 -10z m-293 -6 c-3 -3 -12
-4 -19 -1 -8 3 -5 6 6 6 11 1 17 -2 13 -5z m1273 -5 c0 -5 5 -7 10 -4 6 3 10
4 10 1 0 -9 -61 -38 -67 -32 -8 8 7 27 17 21 5 -3 12 0 16 6 4 8 3 9 -4 5 -7
-4 -12 -2 -12 3 0 6 7 11 15 11 8 0 15 -5 15 -11z m-87 -22 c28 -13 37 -23 37
-42 0 -14 3 -24 8 -24 20 3 75 -3 64 -8 -6 -2 -10 -9 -6 -14 3 -5 -20 -9 -51
-9 -35 0 -54 4 -50 10 3 6 -3 10 -14 10 -12 0 -21 -4 -21 -10 0 -11 -137 -12
-185 -1 l-30 7 28 6 c15 3 27 1 27 -3 0 -5 9 -9 21 -9 14 0 19 5 16 14 -4 11
6 13 49 10 43 -3 54 -1 48 8 -6 10 -5 11 8 1 16 -14 28 -8 28 14 0 17 -24 43
-39 43 -6 0 -11 4 -11 9 0 12 29 7 73 -12z m-1430 -4 c-7 -2 -21 -2 -30 0 -10
3 -4 5 12 5 17 0 24 -2 18 -5z m195 0 c-10 -2 -26 -2 -35 0 -10 3 -2 5 17 5
19 0 27 -2 18 -5z m65 0 c-7 -2 -19 -2 -25 0 -7 3 -2 5 12 5 14 0 19 -2 13 -5z
m65 0 c-10 -2 -26 -2 -35 0 -10 3 -2 5 17 5 19 0 27 -2 18 -5z m65 0 c-7 -2
-19 -2 -25 0 -7 3 -2 5 12 5 14 0 19 -2 13 -5z m742 -43 c-3 -5 -12 -10 -18
-10 -7 0 -6 4 3 10 19 12 23 12 15 0z m445 -26 c0 -8 -5 -12 -10 -9 -6 4 -8
11 -5 16 9 14 15 11 15 -7z m85 6 c-3 -5 -12 -10 -18 -10 -7 0 -6 4 3 10 19
12 23 12 15 0z m-32 -27 c-7 -2 -21 -2 -30 0 -10 3 -4 5 12 5 17 0 24 -2 18
-5z m84 1 c-3 -3 -12 -4 -19 -1 -8 3 -5 6 6 6 11 1 17 -2 13 -5z"/>
<path d="M1454 1966 c-15 -12 -17 -17 -6 -27 10 -11 15 -10 29 4 24 23 4 43
-23 23z"/>
<path d="M1492 374 c-13 -10 -14 -14 -3 -28 8 -10 11 -30 7 -58 -3 -24 -3 -36
0 -27 3 11 12 15 25 12 13 -4 19 0 19 12 0 15 1 15 16 1 20 -20 38 -20 58 0 9
8 16 11 16 5 0 -12 157 -18 168 -6 9 9 -18 56 -28 50 -18 -11 -58 7 -69 31
-12 28 -58 34 -68 8 -5 -15 -7 -15 -15 -1 -10 19 -100 20 -126 1z"/>
<path d="M295 2310 c3 -5 10 -10 16 -10 5 0 9 5 9 10 0 6 -7 10 -16 10 -8 0
-12 -4 -9 -10z"/>
<path d="M2892 2300 c0 -14 2 -19 5 -12 2 6 2 18 0 25 -3 6 -5 1 -5 -13z"/>
<path d="M1581 574 c0 -11 3 -14 6 -6 3 7 2 16 -1 19 -3 4 -6 -2 -5 -13z"/>
<path d="M1938 123 c7 -3 16 -2 19 1 4 3 -2 6 -13 5 -11 0 -14 -3 -6 -6z"/>
<path d="M2718 123 c45 -2 119 -2 165 0 45 1 8 3 -83 3 -91 0 -128 -2 -82 -3z"/>
</g>
</svg>
