<?xml version="1.0" standalone="no"?>
<!DOCTYPE svg PUBLIC "-//W3C//DTD SVG 20010904//EN"
 "http://www.w3.org/TR/2001/REC-SVG-20010904/DTD/svg10.dtd">
<svg version="1.0" xmlns="http://www.w3.org/2000/svg"
 width="363.000000pt" height="363.000000pt" viewBox="0 0 363.000000 363.000000"
 preserveAspectRatio="xMidYMid meet">
<metadata>
Created by potrace 1.14, written by Peter Selinger 2001-2017
</metadata>
<g transform="translate(0.000000,363.000000) scale(0.100000,-0.100000)"
fill="#000000" stroke="none">
<path d="M1456 2811 c-8 -13 57 -21 179 -21 73 0 106 3 99 10 -13 13 -271 23
-278 11z"/>
<path d="M1000 2616 c0 -124 3 -168 13 -171 6 -3 40 -9 75 -13 61 -9 62 -8 62
15 0 12 -9 28 -20 35 -11 7 -20 18 -20 25 0 7 -11 28 -24 47 -19 28 -25 55
-31 126 -4 49 -11 90 -15 90 -5 0 -15 3 -24 6 -14 5 -16 -13 -16 -160z"/>
<path d="M2142 2751 c-11 -7 -10 -10 3 -15 15 -5 16 -24 9 -198 -4 -106 -7
-203 -7 -215 1 -13 -4 -23 -10 -23 -7 0 -7 -4 1 -12 6 -6 14 -10 16 -7 5 5 26
359 26 432 0 47 -9 57 -38 38z"/>
<path d="M376 2381 c-55 -12 -41 -29 30 -36 73 -8 258 -1 287 10 23 10 21 21
-5 29 -29 7 -274 6 -312 -3z"/>
<path d="M310 1516 l0 -738 233 5 c248 5 267 7 367 31 127 30 241 91 274 148
12 19 16 53 16 126 0 124 5 131 91 127 49 -2 65 -7 85 -26 l24 -24 -54 -29
c-68 -37 -84 -65 -53 -94 18 -17 223 -112 240 -112 3 0 44 -18 91 -40 47 -22
88 -40 91 -40 3 0 32 -12 63 -26 31 -15 77 -35 102 -46 25 -11 58 -26 75 -33
147 -67 181 -77 275 -82 158 -8 310 23 475 97 207 92 269 134 259 175 -5 22
16 73 59 136 10 15 19 40 20 57 1 16 5 28 9 26 3 -2 14 17 24 43 10 27 21 53
24 58 4 6 10 24 13 40 3 17 13 64 21 105 25 119 23 298 -5 395 -13 44 -27 82
-31 83 -4 2 -8 9 -8 16 0 12 -49 92 -80 129 -24 29 -96 76 -142 93 -67 24
-183 20 -268 -10 -92 -31 -157 -74 -222 -145 -49 -53 -65 -75 -132 -178 -20
-31 -87 -192 -119 -286 -6 -16 -8 -17 -31 -2 -24 16 -86 22 -244 26 -67 1 -74
3 -87 28 -14 25 -14 25 -15 3 0 -21 -4 -22 -57 -21 -42 2 -72 10 -108 30 -27
15 -79 37 -115 50 -74 26 -121 53 -165 95 -16 16 -43 39 -59 52 -28 21 -29 24
-23 86 3 35 20 103 36 151 32 91 37 109 22 87 -6 -10 -11 -5 -21 17 -7 17 -16
28 -21 25 -5 -3 -9 7 -9 22 0 15 -3 24 -7 20 -4 -3 -10 -109 -15 -234 -8 -251
-17 -374 -28 -382 -4 -3 -12 -18 -17 -35 -7 -20 -16 -29 -27 -27 -12 2 -16 -5
-16 -31 0 -24 -5 -37 -17 -41 -34 -12 -73 -37 -73 -46 0 -5 5 -12 10 -15 23
-14 7 -25 -40 -25 -27 0 -50 4 -50 8 0 5 -10 8 -22 8 -17 -1 -24 5 -26 22 -2
12 -9 22 -15 22 -7 0 -4 5 6 11 9 5 17 19 17 29 0 10 -8 24 -17 29 -10 6 -13
11 -6 11 14 0 -10 94 -31 119 -8 11 -8 15 2 18 19 7 14 23 -8 23 -17 0 -18 3
-9 19 7 10 9 26 4 37 -4 11 -7 49 -7 87 0 59 -3 70 -24 86 -19 15 -21 20 -9
25 8 3 15 1 15 -4 0 -6 7 -10 15 -10 21 0 19 12 -6 33 -15 13 -19 25 -15 42 4
15 1 25 -9 29 -8 3 -15 17 -15 31 0 14 -5 25 -11 25 -6 0 -9 6 -6 13 2 6 12
10 22 9 15 -3 16 -1 9 10 -25 31 -23 45 4 42 15 -2 19 -1 10 2 -13 4 -18 16
-18 44 0 21 -4 41 -10 45 -5 3 -7 12 -3 20 4 11 -3 15 -23 16 -16 1 -40 3 -54
5 -14 2 -109 7 -212 10 l-188 7 0 -737z m1845 -526 c-5 -14 -2 -20 9 -20 9 0
16 -8 16 -19 0 -10 7 -22 16 -25 8 -3 12 -10 9 -16 -3 -5 1 -10 9 -10 9 0 16
-4 16 -10 0 -23 -30 -7 -50 27 -15 27 -24 33 -30 24 -9 -16 -30 -6 -30 14 0 8
-11 17 -25 21 -38 9 -30 22 18 27 23 2 43 4 45 5 2 1 0 -7 -3 -18z"/>
<path d="M2100 1520 c0 -5 5 -10 10 -10 6 0 10 5 10 10 0 6 -4 10 -10 10 -5 0
-10 -4 -10 -10z"/>
</g>
</svg>
